<svg width="0" height="0" class="hidden">
  <symbol fill="none" xmlns="http://www.w3.org/2000/svg" viewBox="0 0 24 24" id="linkedin">
    <path d="M20.4701 1.99999H3.53006C3.33964 1.99734 3.15056 2.03223 2.97362 2.10267C2.79669 2.17311 2.63536 2.27771 2.49886 2.4105C2.36235 2.54329 2.25334 2.70167 2.17805 2.8766C2.10276 3.05152 2.06267 3.23957 2.06006 3.42999V20.57C2.06267 20.7604 2.10276 20.9485 2.17805 21.1234C2.25334 21.2983 2.36235 21.4567 2.49886 21.5895C2.63536 21.7223 2.79669 21.8269 2.97362 21.8973C3.15056 21.9677 3.33964 22.0026 3.53006 22H20.4701C20.6605 22.0026 20.8496 21.9677 21.0265 21.8973C21.2034 21.8269 21.3648 21.7223 21.5013 21.5895C21.6378 21.4567 21.7468 21.2983 21.8221 21.1234C21.8974 20.9485 21.9375 20.7604 21.9401 20.57V3.42999C21.9375 3.23957 21.8974 3.05152 21.8221 2.8766C21.7468 2.70167 21.6378 2.54329 21.5013 2.4105C21.3648 2.27771 21.2034 2.17311 21.0265 2.10267C20.8496 2.03223 20.6605 1.99734 20.4701 1.99999ZM8.09006 18.74H5.09006V9.73999H8.09006V18.74ZM6.59006 8.47999C6.17632 8.47999 5.77953 8.31563 5.48697 8.02307C5.19442 7.73052 5.03006 7.33372 5.03006 6.91999C5.03006 6.50625 5.19442 6.10946 5.48697 5.8169C5.77953 5.52434 6.17632 5.35999 6.59006 5.35999C6.80975 5.33507 7.03224 5.35684 7.24293 5.42387C7.45363 5.4909 7.6478 5.60168 7.81272 5.74895C7.97763 5.89622 8.10958 6.07667 8.19993 6.27847C8.29028 6.48027 8.33698 6.69888 8.33698 6.91999C8.33698 7.14109 8.29028 7.3597 8.19993 7.5615C8.10958 7.76331 7.97763 7.94375 7.81272 8.09103C7.6478 8.2383 7.45363 8.34907 7.24293 8.4161C7.03224 8.48313 6.80975 8.5049 6.59006 8.47999ZM18.9101 18.74H15.9101V13.91C15.9101 12.7 15.4801 11.91 14.3901 11.91C14.0527 11.9125 13.7242 12.0183 13.4489 12.2132C13.1735 12.4081 12.9645 12.6827 12.8501 13C12.7718 13.235 12.7379 13.4826 12.7501 13.73V18.73H9.75006C9.75006 18.73 9.75006 10.55 9.75006 9.72999H12.7501V11C13.0226 10.5271 13.419 10.1375 13.8965 9.87319C14.374 9.60887 14.9146 9.47984 15.4601 9.49999C17.4601 9.49999 18.9101 10.79 18.9101 13.56V18.74Z" fill="#FF5722"></path>
  </symbol>
  <symbol fill="none" xmlns="http://www.w3.org/2000/svg" viewBox="0 0 24 24" id="twitter">
    <path d="M22 5.79997C21.2483 6.12606 20.4534 6.34163 19.64 6.43997C20.4982 5.92729 21.1413 5.12075 21.45 4.16997C20.6436 4.65003 19.7608 4.98826 18.84 5.16997C18.2245 4.50254 17.405 4.05826 16.5098 3.90682C15.6147 3.75537 14.6945 3.90532 13.8938 4.33315C13.093 4.76099 12.4569 5.4425 12.0852 6.2708C11.7135 7.09911 11.6273 8.02736 11.84 8.90997C10.2094 8.82749 8.61444 8.40292 7.15865 7.66383C5.70287 6.92474 4.41885 5.88766 3.39 4.61997C3.02914 5.25013 2.83952 5.96379 2.84 6.68997C2.83872 7.36435 3.00422 8.02858 3.32176 8.62353C3.63929 9.21848 4.09902 9.72568 4.66 10.1C4.00798 10.0822 3.36989 9.90726 2.8 9.58997V9.63997C2.80489 10.5849 3.13599 11.4991 3.73731 12.2279C4.33864 12.9568 5.17326 13.4556 6.1 13.64C5.74326 13.7485 5.37287 13.8058 5 13.81C4.74189 13.807 4.48442 13.7835 4.23 13.74C4.49391 14.5528 5.00462 15.2631 5.69107 15.7721C6.37753 16.2811 7.20558 16.5635 8.06 16.58C6.6172 17.7152 4.83588 18.3348 3 18.34C2.66574 18.3411 2.33174 18.321 2 18.28C3.87443 19.4902 6.05881 20.1327 8.29 20.13C9.82969 20.146 11.3571 19.855 12.7831 19.274C14.2091 18.6931 15.505 17.8338 16.5952 16.7465C17.6854 15.6591 18.548 14.3654 19.1326 12.9409C19.7172 11.5164 20.012 9.98969 20 8.44997C20 8.27996 20 8.09997 20 7.91997C20.7847 7.33478 21.4615 6.61739 22 5.79997Z" fill="#FF5722"></path>
  </symbol>
  <symbol fill="none" xmlns="http://www.w3.org/2000/svg" viewBox="0 0 24 24" id="map-pin">
    <path d="M21 10C21 17 12 23 12 23C12 23 3 17 3 10C3 7.61305 3.94821 5.32387 5.63604 3.63604C7.32387 1.94821 9.61305 1 12 1C14.3869 1 16.6761 1.94821 18.364 3.63604C20.0518 5.32387 21 7.61305 21 10Z" stroke="#FF5722" stroke-width="2" stroke-linecap="round" stroke-linejoin="round"></path>
    <path d="M12 13C13.6569 13 15 11.6569 15 10C15 8.34315 13.6569 7 12 7C10.3431 7 9 8.34315 9 10C9 11.6569 10.3431 13 12 13Z" stroke="#FF5722" stroke-width="2" stroke-linecap="round" stroke-linejoin="round"></path>
  </symbol>
  <symbol fill="none" xmlns="http://www.w3.org/2000/svg" viewBox="0 0 24 24" id="mail">
    <path d="M4 4H20C21.1 4 22 4.9 22 6V18C22 19.1 21.1 20 20 20H4C2.9 20 2 19.1 2 18V6C2 4.9 2.9 4 4 4Z" stroke="#FF5722" stroke-width="2" stroke-linecap="round" stroke-linejoin="round"></path>
    <path d="M22 6L12 13L2 6" stroke="#FF5722" stroke-width="2" stroke-linecap="round" stroke-linejoin="round"></path>
  </symbol>
  <symbol fill="none" xmlns="http://www.w3.org/2000/svg" viewBox="0 0 24 24" id="mobile">
    <path d="M12.71 16.29L12.56 16.17C12.5043 16.1322 12.4437 16.1019 12.38 16.08L12.2 16C12.0378 15.9661 11.8698 15.973 11.7109 16.0201C11.5521 16.0673 11.4074 16.1531 11.29 16.27C11.2017 16.3672 11.1306 16.4788 11.08 16.6C11.0043 16.7822 10.9842 16.9827 11.0223 17.1763C11.0603 17.3699 11.1547 17.5479 11.2937 17.688C11.4327 17.828 11.61 17.9238 11.8033 17.9633C11.9966 18.0028 12.1972 17.9843 12.38 17.91C12.4995 17.852 12.6105 17.778 12.71 17.69C12.8488 17.5494 12.9428 17.3708 12.9801 17.1768C13.0175 16.9828 12.9966 16.7821 12.92 16.6C12.8701 16.4844 12.7989 16.3792 12.71 16.29ZM16 2H8C7.20435 2 6.44129 2.31607 5.87868 2.87868C5.31607 3.44129 5 4.20435 5 5V19C5 19.7956 5.31607 20.5587 5.87868 21.1213C6.44129 21.6839 7.20435 22 8 22H16C16.7956 22 17.5587 21.6839 18.1213 21.1213C18.6839 20.5587 19 19.7956 19 19V5C19 4.20435 18.6839 3.44129 18.1213 2.87868C17.5587 2.31607 16.7956 2 16 2ZM17 19C17 19.2652 16.8946 19.5196 16.7071 19.7071C16.5196 19.8946 16.2652 20 16 20H8C7.73478 20 7.48043 19.8946 7.29289 19.7071C7.10536 19.5196 7 19.2652 7 19V5C7 4.73478 7.10536 4.48043 7.29289 4.29289C7.48043 4.10536 7.73478 4 8 4H16C16.2652 4 16.5196 4.10536 16.7071 4.29289C16.8946 4.48043 17 4.73478 17 5V19Z" fill="#FF5722"></path>
  </symbol>
  <symbol fill="none" xmlns="http://www.w3.org/2000/svg" viewBox="0 0 24 24" id="facebook">
    <path d="M20.9 2H3.1C2.80826 2 2.52847 2.11589 2.32218 2.32218C2.11589 2.52847 2 2.80826 2 3.1V20.9C2 21.0445 2.02845 21.1875 2.08373 21.321C2.13901 21.4544 2.22004 21.5757 2.32218 21.6778C2.42433 21.78 2.54559 21.861 2.67905 21.9163C2.81251 21.9715 2.95555 22 3.1 22H12.68V14.25H10.08V11.25H12.68V9C12.6261 8.47176 12.6885 7.93813 12.8627 7.43654C13.0369 6.93495 13.3188 6.47755 13.6885 6.09641C14.0582 5.71528 14.5068 5.41964 15.0028 5.23024C15.4989 5.04083 16.0304 4.96225 16.56 5C17.3383 4.99521 18.1163 5.03528 18.89 5.12V7.82H17.3C16.04 7.82 15.8 8.42 15.8 9.29V11.22H18.8L18.41 14.22H15.8V22H20.9C21.0445 22 21.1875 21.9715 21.321 21.9163C21.4544 21.861 21.5757 21.78 21.6778 21.6778C21.78 21.5757 21.861 21.4544 21.9163 21.321C21.9715 21.1875 22 21.0445 22 20.9V3.1C22 2.95555 21.9715 2.81251 21.9163 2.67905C21.861 2.54559 21.78 2.42433 21.6778 2.32218C21.5757 2.22004 21.4544 2.13901 21.321 2.08373C21.1875 2.02845 21.0445 2 20.9 2Z" fill="#FF5722"></path>
  </symbol>
</svg>